<?xml version="1.0" encoding="utf-8"?>
<!-- Generator: Adobe Illustrator 27.5.0, SVG Export Plug-In . SVG Version: 6.00 Build 0)  -->
<svg version="1.1" xmlns="http://www.w3.org/2000/svg" xmlns:xlink="http://www.w3.org/1999/xlink" x="0px" y="0px"
	 viewBox="0 0 500 500" style="enable-background:new 0 0 500 500;" xml:space="preserve">
<g id="BACKGROUND">
	<g>
		<rect style="fill:#001E3C;" width="500" height="500"/>
		<g>
			<polygon style="fill:#FFC704;" points="0,114.013 0,0 114.013,0 			"/>
			<polygon style="fill:#FFFFFF;" points="500,385.987 500,500 385.987,500 			"/>
		</g>
	</g>
</g>
<g id="OBJECTS">
	<g>
		<g>
			<g>
				<path style="fill:#FFFFFF;" d="M220.142,271.83c-1.105,0-2-0.896-2-2v-71.318h-23.966c-8.078,0-14.368,3.905-16.825,10.446
					c-2.337,6.223-0.57,13.108,4.502,17.544c5.345,4.674,14.012,4.16,19.322-1.149c2.186-2.186,3.45-5.563,3.299-8.813
					c-0.099-2.125-0.838-5.173-3.797-7.627c-1.996-1.654-4.905-2.52-7.599-2.261c-1.597,0.154-3.87,0.79-5.631,2.942
					c-0.942,1.151-1.377,2.803-1.193,4.528c0.187,1.751,0.975,3.298,2.163,4.244c1.515,1.207,3.232,1.662,4.587,1.212
					c1.041-0.343,1.763-1.169,2.089-2.39c0.286-1.068,1.382-1.703,2.449-1.415c1.067,0.285,1.7,1.382,1.415,2.448
					c-0.672,2.514-2.386,4.393-4.701,5.156c-2.643,0.869-5.758,0.167-8.332-1.883c-2.019-1.607-3.349-4.141-3.648-6.948
					c-0.297-2.783,0.46-5.512,2.075-7.486c2.083-2.546,4.968-4.064,8.342-4.391c3.716-0.363,7.75,0.854,10.537,3.163
					c3.186,2.643,5.046,6.378,5.24,10.52c0.205,4.404-1.464,8.825-4.466,11.827c-6.768,6.769-17.886,7.364-24.784,1.333
					c-6.338-5.544-8.542-14.164-5.613-21.962c3.067-8.165,10.756-13.04,20.569-13.04h25.966c1.104,0,2,0.895,2,2v73.318
					C222.142,270.934,221.247,271.83,220.142,271.83z"/>
			</g>
			<g>
				<path style="fill:#FFFFFF;" d="M235.871,271.83c-1.104,0-2-0.896-2-2v-46.733c0-1.105,0.896-2,2-2c1.104,0,2,0.895,2,2v46.733
					C237.871,270.934,236.975,271.83,235.871,271.83z"/>
			</g>
			<g>
				<path style="fill:#FFFFFF;" d="M264.13,271.83c-1.104,0-2-0.896-2-2v-46.733c0-1.105,0.896-2,2-2s2,0.895,2,2v46.733
					C266.13,270.934,265.234,271.83,264.13,271.83z"/>
			</g>
			<g>
				<path style="fill:#FFFFFF;" d="M250,271.83c-1.104,0-2-0.896-2-2v-46.733c0-1.105,0.896-2,2-2c1.105,0,2.001,0.895,2.001,2
					v46.733C252.001,270.934,251.105,271.83,250,271.83z"/>
			</g>
			<g>
				<path style="fill:#FFFFFF;" d="M264.13,212.165h-28.259c-1.104,0-2-0.895-2-2c0-1.104,0.896-2,2-2h28.259c1.104,0,2,0.896,2,2
					C266.13,211.269,265.234,212.165,264.13,212.165z"/>
			</g>
			<g>
				<path style="fill:#FFFFFF;" d="M264.13,199.232h-28.259c-1.104,0-2-0.896-2-2c0-1.104,0.896-2,2-2h28.259c1.104,0,2,0.896,2,2
					C266.13,198.337,265.234,199.232,264.13,199.232z"/>
			</g>
			<g>
				<path style="fill:#FFFFFF;" d="M343.467,186.766H156.534c-1.105,0-2-0.895-2-2c0-1.104,0.895-2,2-2h186.933c1.104,0,2,0.896,2,2
					C345.467,185.871,344.571,186.766,343.467,186.766z"/>
			</g>
			<g>
				<path style="fill:#FFFFFF;" d="M280.901,271.83c-1.105,0-2-0.896-2-2v-73.318c0-1.105,0.895-2,2-2h25.966
					c9.813,0,17.502,4.875,20.569,13.04c2.929,7.798,0.726,16.418-5.613,21.962c-6.898,6.033-18.016,5.435-24.783-1.333
					c-3.002-3.001-4.671-7.422-4.466-11.826c0.192-4.142,2.053-7.878,5.239-10.52c2.786-2.312,6.825-3.526,10.536-3.164
					c3.374,0.326,6.259,1.844,8.343,4.391c1.615,1.975,2.372,4.703,2.075,7.486c-0.3,2.808-1.63,5.34-3.648,6.948
					c-2.575,2.051-5.689,2.753-8.333,1.882c-2.315-0.763-4.028-2.642-4.7-5.155c-0.286-1.066,0.348-2.163,1.415-2.448
					c1.066-0.291,2.164,0.348,2.448,1.415c0.327,1.221,1.05,2.047,2.089,2.39c1.358,0.449,3.073-0.007,4.589-1.212
					c1.188-0.946,1.976-2.493,2.163-4.244c0.184-1.726-0.251-3.377-1.193-4.528c-1.762-2.152-4.035-2.788-5.632-2.942
					c-2.694-0.255-5.602,0.606-7.599,2.261c-2.959,2.454-3.697,5.503-3.797,7.628c-0.151,3.249,1.113,6.625,3.299,8.811
					c5.31,5.308,13.977,5.826,19.322,1.149c5.071-4.436,6.838-11.321,4.501-17.544c-2.456-6.541-8.746-10.446-16.824-10.446h-23.966
					v71.318C282.901,270.934,282.006,271.83,280.901,271.83z"/>
			</g>
		</g>
		<g>
			<g>
				<g>
					<g>
						<path style="fill:#FFFFFF;" d="M242.944,152.687c-0.564,0-1.125-0.237-1.521-0.7c-31.224-36.532-71.159-31.873-79.414-30.44
							v17.29c0,1.105-0.896,2-2,2c-1.105,0-2-0.895-2-2v-18.934c0-0.923,0.632-1.727,1.529-1.943
							c0.493-0.121,12.295-2.905,28.724-0.448c15.145,2.266,37.19,9.635,56.202,31.877c0.717,0.84,0.619,2.103-0.221,2.82
							C243.866,152.53,243.404,152.687,242.944,152.687z"/>
					</g>
					<g>
						<path style="fill:#FFFFFF;" d="M250,150.847c-1.104,0-2-0.895-2-2v-5.338c-18.794-39.351-57.89-41.354-66.853-41.323v15.391
							c0,1.104-0.896,2-2,2c-1.105,0-2-0.896-2-2v-17.329c0-1.045,0.805-1.914,1.847-1.994c0.515-0.04,12.799-0.912,27.974,4.037
							c14.034,4.576,33.206,15.217,44.841,39.916c0.126,0.267,0.191,0.558,0.191,0.852v5.788
							C252.001,149.952,251.105,150.847,250,150.847z"/>
					</g>
					<g>
						<path style="fill:#FFFFFF;" d="M144.395,162.931c-1.104,0-2-0.895-2-2V141.66c0-0.945,0.662-1.762,1.587-1.957
							c2.172-0.456,53.652-10.946,93.454,12.672c0.95,0.564,1.263,1.79,0.699,2.74c-0.563,0.95-1.791,1.266-2.74,0.699
							c-34.64-20.555-79.995-14.058-89-12.491v17.608C146.395,162.036,145.5,162.931,144.395,162.931z"/>
					</g>
				</g>
				<g>
					<g>
						<path style="fill:#FFFFFF;" d="M257.056,152.687c-0.46,0-0.922-0.157-1.299-0.479c-0.839-0.718-0.939-1.98-0.221-2.82
							c19.012-22.242,41.056-29.611,56.201-31.877c16.428-2.457,28.229,0.328,28.724,0.448c0.897,0.217,1.529,1.021,1.529,1.943
							v18.934c0,1.105-0.896,2-2,2c-1.105,0-2-0.895-2-2v-17.287c-8.263-1.422-48.242-6.031-79.413,30.438
							C258.182,152.45,257.621,152.687,257.056,152.687z"/>
					</g>
					<g>
						<path style="fill:#FFFFFF;" d="M250,150.847c-1.104,0-2-0.895-2-2v-5.788c0-0.295,0.065-0.586,0.191-0.852
							c11.635-24.699,30.807-35.34,44.841-39.916c15.173-4.947,27.458-4.076,27.975-4.037c1.042,0.08,1.847,0.949,1.847,1.994
							v17.329c0,1.104-0.895,2-2,2c-1.104,0-2-0.896-2-2v-15.388c-9.003-0.05-48.089,2.033-66.853,41.32v5.338
							C252,149.952,251.105,150.847,250,150.847z"/>
					</g>
					<g>
						<path style="fill:#FFFFFF;" d="M355.605,162.931c-1.105,0-2-0.895-2-2v-17.608c-8.999-1.564-54.356-8.066-89,12.491
							c-0.951,0.565-2.178,0.25-2.74-0.699c-0.564-0.95-0.251-2.177,0.699-2.74c39.803-23.62,91.281-13.129,93.454-12.672
							c0.925,0.195,1.587,1.012,1.587,1.957v19.271C357.605,162.036,356.71,162.931,355.605,162.931z"/>
					</g>
				</g>
			</g>
			<g>
				<path style="fill:#FFC704;" d="M359.272,172.32H140.728c-3.415,0-6.194-2.778-6.194-6.194s2.779-6.194,6.194-6.194h90.92
					c1.282-6.822,9.023-12.084,18.352-12.084c9.33,0,17.071,5.262,18.353,12.084h90.919c3.416,0,6.194,2.778,6.194,6.194
					S362.688,172.32,359.272,172.32z M140.728,163.931c-1.21,0-2.194,0.984-2.194,2.194c0,1.21,0.984,2.194,2.194,2.194h218.544
					c1.21,0,2.194-0.984,2.194-2.194c0-1.21-0.984-2.194-2.194-2.194H266.54c-1.105,0-2-0.895-2-2
					c0-5.561-6.523-10.084-14.54-10.084c-8.017,0-14.539,4.523-14.539,10.084c0,1.105-0.895,2-2,2H140.728z M268.54,161.931h0.01
					H268.54z"/>
			</g>
		</g>
	</g>
</g>
<g id="TEXTS">
	
		<text transform="matrix(1 0 0 1 157.8749 269.7275)" style="fill:#FFC704; font-family:'Barlow-SemiBold'; font-size:16px; letter-spacing:2;">Estd.</text>
	
		<text transform="matrix(1 0 0 1 298.201 269.7957)" style="fill:#FFC704; font-family:'Barlow-SemiBold'; font-size:16px; letter-spacing:2;">2020</text>
	<g>
		
			<text transform="matrix(1 0 0 1 126.8246 370.5822)" style="fill:#FFC704; font-family:'Barlow-ExtraBold'; font-size:57px; letter-spacing:6;">LIBRARY</text>
	</g>
	<g>
		
			<text transform="matrix(1 0 0 1 169.2484 398.4056)" style="fill:#FFFFFF; font-family:'Barlow-SemiBold'; font-size:16px; letter-spacing:5;">TAGLINE HERE</text>
	</g>
</g>
</svg>
